<svg width="28" height="28" viewBox="0 0 28 28" fill="none" xmlns="http://www.w3.org/2000/svg">
<g clip-path="url(#clip0_36_545)">
<path d="M24.4845 5.34812L16.2535 0.601187C14.8636 -0.200423 13.1365 -0.200368 11.7465 0.601187L3.51559 5.34812C2.12291 6.1512 1.25781 7.64893 1.25781 9.25674V18.7432C1.25781 20.351 2.12291 21.8488 3.51553 22.6518L11.7465 27.3988C13.1367 28.2005 14.8637 28.2003 16.2535 27.3988L24.4844 22.6518C25.8771 21.8488 26.7422 20.351 26.7422 18.7432V9.25674C26.7422 7.64898 25.8771 6.15126 24.4845 5.34812ZM24.5547 18.7432C24.5547 19.5714 24.1091 20.3429 23.3917 20.7565L15.1607 25.5035C14.4447 25.9165 13.5552 25.9165 12.8392 25.5035L4.60824 20.7565C3.89091 20.3428 3.44531 19.5714 3.44531 18.7432V9.25674C3.44531 8.42861 3.89091 7.65713 4.6083 7.24347L12.8392 2.49655C13.5553 2.08355 14.445 2.08371 15.1608 2.49655L23.3918 7.24342C24.1091 7.65713 24.5547 8.42855 24.5547 9.25674V18.7432Z" fill="#282943"/>
<path d="M12.9607 13.165L8.89844 9.72714C8.43737 9.33689 7.74716 9.39436 7.35696 9.8556C6.96677 10.3168 7.0243 11.007 7.48542 11.3973L10.5609 14.0001L7.48542 16.6028C7.0243 16.9931 6.96682 17.6833 7.35696 18.1445C7.74809 18.6067 8.43846 18.6623 8.89844 18.2729L12.9607 14.8351C13.4775 14.3978 13.476 13.6011 12.9607 13.165Z" fill="#282943"/>
<path d="M19.8083 16.3438H14.8867C14.2826 16.3438 13.793 16.8335 13.793 17.4377C13.793 18.0419 14.2826 18.5316 14.8867 18.5316H19.8083C20.4123 18.5316 20.9021 18.0419 20.9021 17.4377C20.9021 16.8335 20.4124 16.3438 19.8083 16.3438Z" fill="#282943"/>
</g>
<defs>
<clipPath id="clip0_36_545">
<rect width="28" height="28" fill="white"/>
</clipPath>
</defs>
</svg>
