<svg width="19" height="18" viewBox="0 0 19 18" fill="none" xmlns="http://www.w3.org/2000/svg">
<path d="M17.0001 12.6901V14.9401C17.0009 15.1489 16.9581 15.3557 16.8745 15.5471C16.7908 15.7385 16.668 15.9103 16.5141 16.0515C16.3602 16.1927 16.1785 16.3002 15.9806 16.3671C15.7828 16.434 15.5731 16.4589 15.3651 16.4401C13.0572 16.1893 10.8403 15.4007 8.89257 14.1376C7.08044 12.9861 5.54407 11.4497 4.39257 9.63757C3.12506 7.68098 2.33625 5.45332 2.09007 3.13507C2.07133 2.92767 2.09598 2.71864 2.16245 2.52129C2.22892 2.32394 2.33575 2.14259 2.47615 1.98879C2.61654 1.83499 2.78743 1.7121 2.97792 1.62796C3.1684 1.54382 3.37433 1.50027 3.58257 1.50007H5.83257C6.19655 1.49649 6.54942 1.62538 6.82539 1.86272C7.10137 2.10006 7.28163 2.42966 7.33257 2.79007C7.42754 3.51012 7.60366 4.21712 7.85757 4.89757C7.95848 5.16602 7.98032 5.45776 7.9205 5.73823C7.86069 6.01871 7.72172 6.27616 7.52007 6.48007L6.56757 7.43257C7.63524 9.31023 9.18991 10.8649 11.0676 11.9326L12.0201 10.9801C12.224 10.7784 12.4814 10.6395 12.7619 10.5796C13.0424 10.5198 13.3341 10.5417 13.6026 10.6426C14.283 10.8965 14.99 11.0726 15.7101 11.1676C16.0744 11.219 16.4071 11.4025 16.645 11.6832C16.8828 11.9639 17.0092 12.3223 17.0001 12.6901Z" stroke="#282943" stroke-width="1.7" stroke-linecap="round" stroke-linejoin="round"/>
</svg>
