<svg width="20" height="10" viewBox="0 0 20 10" fill="none" xmlns="http://www.w3.org/2000/svg">
<path d="M18.5198 0.729455L18.5199 0.729523C18.7316 0.922014 18.8574 1.19034 18.8574 1.47777C18.8574 1.7652 18.7316 2.03353 18.5199 2.22602L18.5199 2.22605L10.7705 9.27089L10.7705 9.27093C10.5598 9.46238 10.2805 9.56509 9.9952 9.56509C9.7099 9.56509 9.43056 9.46238 9.21989 9.27093L9.21986 9.27089L1.47054 2.22605L1.4705 2.22609L1.46623 2.22207C1.2602 2.02814 1.13964 1.76128 1.14236 1.47707C1.14508 1.19292 1.27065 0.928367 1.47998 0.73807C1.68828 0.548705 1.96384 0.446058 2.246 0.443829C2.52814 0.4416 2.80533 0.539864 3.01687 0.725597L3.0169 0.725559L3.02122 0.729489L9.9952 7.06947L16.9692 0.729489L16.9692 0.729454C17.1799 0.538002 17.4592 0.435285 17.7445 0.435285C18.0298 0.435285 18.3092 0.538001 18.5198 0.729455Z" fill="#282943" stroke="#282943" stroke-width="0.676304"/>
</svg>
